<svg viewBox="0 0 13 13" xmlns="http://www.w3.org/2000/svg" fill-rule="evenodd" clip-rule="evenodd" stroke-linecap="round" stroke-linejoin="round" stroke-miterlimit="1.5"><path d="M3.75 6.375L5.625 8.25l3.75-3.75" fill="none" stroke="#2d529f" stroke-width=".75"/><path d="M6.452.375l.078.002.077.002.077.004.076.004.076.006.076.006.076.007.076.008.075.009.075.01.074.011.075.012.074.013.073.013.074.015.073.015.072.017.073.017.072.018.071.019.072.02.071.02.07.022.071.022.07.023.069.024.069.025.069.026.068.026.068.028.068.028.067.029.066.029.066.031.066.031.066.032.065.033.064.033.064.035.063.035.064.035.062.037.062.037.062.038.061.039.061.039.06.04.059.041.059.042.059.042.058.043.057.043.057.044.057.045.056.046.055.046.055.047.054.047.053.048.053.049.053.05.052.05.051.05.05.051.05.052.05.053.049.053.048.053.047.054.047.055.046.055.046.056.045.057.044.057.043.057.043.058.042.059.042.059.041.059.04.06.039.061.039.061.038.062.037.062.037.062.035.064.035.063.035.064.033.064.033.065.032.066.031.066.031.066.029.066.029.067.028.068.028.068.026.068.026.069.025.069.024.069.023.07.022.071.022.07.02.071.02.072.019.071.018.072.017.073.017.072.015.073.015.074.013.073.013.074.012.075.011.074.01.075.009.075.008.076.007.076.006.076.006.076.004.076.004.077.002.077.002.078v.154l-.002.078-.002.077-.004.077-.004.076-.006.076-.006.076-.007.076-.008.076-.009.075-.01.075-.011.074-.012.075-.013.074-.013.073-.015.074-.015.073-.017.072-.017.073-.018.072-.019.071-.02.072-.02.071-.022.07-.022.071-.023.07-.024.069-.025.069-.026.069-.026.068-.028.068-.028.068-.029.067-.029.066-.031.066-.031.066-.032.066-.033.065-.033.064-.035.064-.035.063-.035.064-.037.062-.037.062-.038.062-.039.061-.039.061-.04.06-.041.059-.042.059-.042.059-.043.058-.043.057-.044.057-.045.057-.046.056-.046.055-.047.055-.047.054-.048.053-.049.053-.05.053-.05.052-.05.051-.051.05-.052.05-.053.05-.053.049-.053.048-.054.047-.055.047-.055.046-.056.046-.057.045-.057.044-.057.043-.058.043-.059.042-.059.042-.059.041-.06.04-.061.039-.061.039-.062.038-.062.037-.062.037-.064.035-.063.035-.064.035-.064.033-.065.033-.066.032-.066.031-.066.031-.066.029-.067.029-.068.028-.068.028-.068.026-.069.026-.069.025-.069.024-.07.023-.071.022-.07.022-.071.02-.072.02-.071.019-.072.018-.073.017-.072.017-.073.015-.074.015-.073.013-.074.013-.075.012-.074.011-.075.01-.075.009-.076.008-.076.007-.076.006-.076.006-.076.004-.077.004-.077.002-.078.002h-.154l-.078-.002-.077-.002-.077-.004-.076-.004-.076-.006-.076-.006-.076-.007-.076-.008-.075-.009-.075-.01-.074-.011-.075-.012-.074-.013-.073-.013-.074-.015-.073-.015-.072-.017-.073-.017-.072-.018-.071-.019-.072-.02-.071-.02-.07-.022-.071-.022-.07-.023-.069-.024-.069-.025-.069-.026-.068-.026-.068-.028-.068-.028-.067-.029-.066-.029-.066-.031-.066-.031-.066-.032-.065-.033-.064-.033-.064-.035-.063-.035-.064-.035-.062-.037-.062-.037-.062-.038-.061-.039-.061-.039-.06-.04-.059-.041-.059-.042-.059-.042-.058-.043-.057-.043-.057-.044-.057-.045-.056-.046-.055-.046-.055-.047-.054-.047-.053-.048-.053-.049-.053-.05-.052-.05-.051-.05-.05-.051-.05-.052-.05-.053-.049-.053-.048-.053-.047-.054-.047-.055-.046-.055-.046-.056-.045-.057-.044-.057-.043-.057-.043-.058-.042-.059-.042-.059-.041-.059-.04-.06-.039-.061-.039-.061-.038-.062-.037-.062-.037-.062-.035-.064-.035-.063-.035-.064-.033-.064-.033-.065-.032-.066-.031-.066-.031-.066-.029-.066-.029-.067-.028-.068-.028-.068-.026-.068-.026-.069-.025-.069-.024-.069-.023-.07-.022-.071-.022-.07-.02-.071-.02-.072-.019-.071-.018-.072-.017-.073-.017-.072-.015-.073-.015-.074-.013-.073-.013-.074-.012-.075-.011-.074-.01-.075-.009-.075-.008-.076-.007-.076-.006-.076-.006-.076-.004-.076-.004-.077-.002-.077-.002-.078v-.154l.002-.078.002-.077.004-.077.004-.076.006-.076.006-.076.007-.076.008-.076.009-.075.01-.075.011-.074.012-.075.013-.074.013-.073.015-.074.015-.073.017-.072.017-.073.018-.072.019-.071.02-.072.02-.071.022-.07.022-.071.023-.07.024-.069.025-.069.026-.069.026-.068.028-.068.028-.068.029-.067.029-.066.031-.066.031-.066.032-.066.033-.065.033-.064.035-.064.035-.063.035-.064.037-.062.037-.062.038-.062.039-.061.039-.061.04-.06.041-.059.042-.059.042-.059.043-.058.043-.057.044-.057.045-.057.046-.056.046-.055.047-.055.047-.054.048-.053.049-.053.05-.053.05-.052.05-.051.051-.05.052-.05.053-.05.053-.049.053-.048.054-.047.055-.047.055-.046.056-.046.057-.045.057-.044.057-.043.058-.043.059-.042.059-.042.059-.041.06-.04.061-.039.061-.039.062-.038.062-.037.062-.037.064-.035.063-.035.064-.035.064-.033.065-.033.066-.032.066-.031.066-.031.066-.029.067-.029.068-.028.068-.028.068-.026.069-.026.069-.025.069-.024.07-.023.071-.022.07-.022.071-.02.072-.02.071-.019.072-.018.073-.017.072-.017.073-.015.074-.015.073-.013.074-.013.075-.012.074-.011.075-.01.075-.009.076-.008.076-.007.076-.006.076-.006.076-.004.077-.004.077-.002.078-.002h.154zm-.145.75l-.068.002-.067.002-.068.003-.067.004-.066.004-.067.006-.066.006-.066.007-.066.008-.066.009-.065.01-.065.01-.064.011-.065.012-.064.013-.064.013-.063.015-.064.015-.063.015-.062.017-.063.017-.062.018-.061.019-.062.02-.061.02-.061.021-.06.022-.06.022-.06.023-.059.024-.059.025-.059.025-.058.026-.058.026-.058.028-.057.028-.056.028-.057.03-.056.03-.055.03-.056.032-.054.031-.055.033-.054.033-.053.034-.053.035-.053.035-.052.035-.052.037-.051.037-.051.037-.05.038-.05.039-.049.039-.049.04-.049.041-.048.041-.047.041-.047.042-.046.043-.046.043-.046.044-.044.045-.045.044-.044.046-.043.046-.043.046-.042.047-.041.047-.041.048-.041.049-.04.049-.039.049-.039.05-.038.05-.037.051-.037.051-.037.052-.035.052-.035.053-.035.053-.034.053-.033.054-.033.055-.031.054-.032.056-.03.055-.03.056-.03.057-.028.056-.028.057-.028.058-.026.058-.026.058-.025.059-.025.059-.024.059-.023.06-.022.06-.022.06-.021.061-.02.061-.02.062-.019.061-.018.062-.017.063-.017.062-.015.063-.015.064-.015.063-.013.064-.013.064-.012.065-.011.064-.01.065-.01.065-.009.066-.008.066-.007.066-.006.066-.006.067-.004.066-.004.067-.003.068-.002.067-.002.068v.136l.002.068.002.067.003.068.004.067.004.066.006.067.006.066.007.066.008.066.009.066.01.065.01.065.011.064.012.065.013.064.013.064.015.063.015.064.015.063.017.062.017.063.018.062.019.061.02.062.02.061.021.061.022.06.022.06.023.06.024.059.025.059.025.059.026.058.026.058.028.058.028.057.028.056.03.057.03.056.03.055.032.056.031.054.033.055.033.054.034.053.035.053.035.053.035.052.037.052.037.051.037.051.038.05.039.05.039.049.04.049.041.049.041.048.041.047.042.047.043.046.043.046.044.046.045.044.044.045.046.044.046.043.046.043.047.042.047.041.048.041.049.041.049.04.049.039.05.039.05.038.051.037.051.037.052.037.052.035.053.035.053.035.053.034.054.033.055.033.054.031.056.032.055.03.056.03.057.03.056.028.057.028.058.028.058.026.058.026.059.025.059.025.059.024.06.023.06.022.06.022.061.021.061.02.062.02.061.019.062.018.063.017.062.017.063.015.064.015.063.015.064.013.064.013.065.012.064.011.065.01.065.01.066.009.066.008.066.007.066.006.067.006.066.004.067.004.068.003.067.002.068.002h.136l.068-.002.067-.002.068-.003.067-.004.066-.004.067-.006.066-.006.066-.007.066-.008.066-.009.065-.01.065-.01.064-.011.065-.012.064-.013.064-.013.063-.015.064-.015.063-.015.062-.017.063-.017.062-.018.061-.019.062-.02.061-.02.061-.021.06-.022.06-.022.06-.023.059-.024.059-.025.059-.025.058-.026.058-.026.058-.028.057-.028.056-.028.057-.03.056-.03.055-.03.056-.032.054-.031.055-.033.054-.033.053-.034.053-.035.053-.035.052-.035.052-.037.051-.037.051-.037.05-.038.05-.039.049-.039.049-.04.049-.041.048-.041.047-.041.047-.042.046-.043.046-.043.046-.044.044-.045.045-.044.044-.046.043-.046.043-.046.042-.047.041-.047.041-.048.041-.049.04-.049.039-.049.039-.05.038-.05.037-.051.037-.051.037-.052.035-.052.035-.053.035-.053.034-.053.033-.054.033-.055.031-.054.032-.056.03-.055.03-.056.03-.057.028-.056.028-.057.028-.058.026-.058.026-.058.025-.059.025-.059.024-.059.023-.06.022-.06.022-.06.021-.061.02-.061.02-.062.019-.061.018-.062.017-.063.017-.062.015-.063.015-.064.015-.063.013-.064.013-.064.012-.065.011-.064.01-.065.01-.065.009-.066.008-.066.007-.066.006-.066.006-.067.004-.066.004-.067.003-.068.002-.067.002-.068v-.136l-.002-.068-.002-.067-.003-.068-.004-.067-.004-.066-.006-.067-.006-.066-.007-.066-.008-.066-.009-.066-.01-.065-.01-.065-.011-.064-.012-.065-.013-.064-.013-.064-.015-.063-.015-.064-.015-.063-.017-.062-.017-.063-.018-.062-.019-.061-.02-.062-.02-.061-.021-.061-.022-.06-.022-.06-.023-.06-.024-.059-.025-.059-.025-.059-.026-.058-.026-.058-.028-.058-.028-.057-.028-.056-.03-.057-.03-.056-.03-.055-.032-.056-.031-.054-.033-.055-.033-.054-.034-.053-.035-.053-.035-.053-.035-.052-.037-.052-.037-.051-.037-.051-.038-.05-.039-.05-.039-.049-.04-.049-.041-.049-.041-.048-.041-.047-.042-.047-.043-.046-.043-.046-.044-.046-.045-.044-.044-.045-.046-.044-.046-.043-.046-.043-.047-.042-.047-.041-.048-.041-.049-.041-.049-.04-.049-.039-.05-.039-.05-.038-.051-.037-.051-.037-.052-.037-.052-.035-.053-.035-.053-.035-.053-.034-.054-.033-.055-.033-.054-.031-.056-.032-.055-.03-.056-.03-.057-.03-.056-.028-.057-.028-.058-.028-.058-.026-.058-.026-.059-.025-.059-.025-.059-.024-.06-.023-.06-.022-.06-.022-.061-.021-.061-.02-.062-.02-.061-.019-.062-.018-.063-.017-.062-.017-.063-.015-.064-.015-.063-.015-.064-.013-.064-.013-.065-.012-.064-.011-.065-.01-.065-.01-.066-.009-.066-.008-.066-.007-.066-.006-.067-.006-.066-.004-.067-.004-.068-.003-.067-.002-.068-.002h-.136z" fill="#2d529f"/></svg>